<?xml version="1.0" standalone="yes"?>

<svg version="1.1" viewBox="0.0 0.0 960.0 720.0" fill="none" stroke="none" stroke-linecap="square" stroke-miterlimit="10" xmlns="http://www.w3.org/2000/svg" xmlns:xlink="http://www.w3.org/1999/xlink"><clipPath id="p.0"><path d="m0 0l960.0 0l0 720.0l-960.0 0l0 -720.0z" clip-rule="nonzero"></path></clipPath><g clip-path="url(#p.0)"><path fill="#000000" fill-opacity="0.0" d="m0 0l960.0 0l0 720.0l-960.0 0z" fill-rule="nonzero"></path><path fill="#cfe2f3" d="m164.38058 127.38058l226.80313 0l0 179.40158l-226.80313 0z" fill-rule="nonzero"></path><path stroke="#000000" stroke-width="1.0" stroke-linejoin="round" stroke-linecap="butt" d="m164.38058 127.38058l226.80313 0l0 179.40158l-226.80313 0z" fill-rule="nonzero"></path><path fill="#f4cccc" d="m211.69292 188.64305l128.47243 0l0 76.56691l-128.47243 0z" fill-rule="nonzero"></path><path stroke="#000000" stroke-width="1.0" stroke-linejoin="round" stroke-linecap="butt" d="m211.69292 188.64305l128.47243 0l0 76.56691l-128.47243 0z" fill-rule="nonzero"></path><path fill="#000000" d="m223.03667 238.64651l0 -22.90625l8.59375 0q2.625 0 4.203125 0.703125q1.59375 0.6875 2.484375 2.140625q0.90625 1.4375 0.90625 3.015625q0 1.46875 -0.796875 2.765625q-0.796875 1.296875 -2.40625 2.09375q2.078125 0.609375 3.1875 2.078125q1.125 1.46875 1.125 3.46875q0 1.609375 -0.6875 3.0q-0.671875 1.375 -1.671875 2.125q-1.0 0.75 -2.515625 1.140625q-1.5 0.375 -3.6875 0.375l-8.734375 0zm3.03125 -13.28125l4.953125 0q2.015625 0 2.890625 -0.265625q1.15625 -0.34375 1.734375 -1.140625q0.59375 -0.796875 0.59375 -2.0q0 -1.140625 -0.546875 -2.0q-0.546875 -0.875 -1.5625 -1.1875q-1.015625 -0.328125 -3.484375 -0.328125l-4.578125 0l0 6.921875zm0 10.578125l5.703125 0q1.46875 0 2.0625 -0.109375q1.046875 -0.1875 1.75 -0.625q0.703125 -0.4375 1.15625 -1.265625q0.453125 -0.84375 0.453125 -1.9375q0 -1.28125 -0.65625 -2.21875q-0.65625 -0.953125 -1.828125 -1.328125q-1.15625 -0.390625 -3.34375 -0.390625l-5.296875 0l0 7.875zm18.09375 -16.96875l0 -3.234375l2.8125 0l0 3.234375l-2.8125 0zm0 19.671875l0 -16.59375l2.8125 0l0 16.59375l-2.8125 0zm7.03125 0l0 -22.90625l2.8125 0l0 22.90625l-2.8125 0zm7.1093597 0l0 -22.90625l2.8125 0l0 22.90625l-2.8125 0zm7.1875 -19.671875l0 -3.234375l2.8125 0l0 3.234375l-2.8125 0zm0 19.671875l0 -16.59375l2.8125 0l0 16.59375l-2.8125 0zm7.09375 0l0 -16.59375l2.53125 0l0 2.359375q1.828125 -2.734375 5.28125 -2.734375q1.5 0 2.75 0.546875q1.265625 0.53125 1.890625 1.40625q0.625 0.875 0.875 2.078125q0.15625 0.78125 0.15625 2.734375l0 10.203125l-2.8125 0l0 -10.09375q0 -1.71875 -0.328125 -2.5625q-0.328125 -0.859375 -1.171875 -1.359375q-0.828125 -0.515625 -1.953125 -0.515625q-1.796875 0 -3.109375 1.140625q-1.296875 1.140625 -1.296875 4.328125l0 9.0625l-2.8125 0zm17.28125 1.375l2.734375 0.40625q0.171875 1.265625 0.953125 1.84375q1.046875 0.78125 2.859375 0.78125q1.953125 0 3.015625 -0.78125q1.0625 -0.78125 1.4375 -2.1875q0.21875 -0.859375 0.203125 -3.609375q-1.84375 2.171875 -4.59375 2.171875q-3.421875 0 -5.296875 -2.46875q-1.875 -2.46875 -1.875 -5.921875q0 -2.375 0.859375 -4.375q0.859375 -2.015625 2.484375 -3.109375q1.640625 -1.09375 3.84375 -1.09375q2.9375 0 4.84375 2.375l0 -2.0l2.59375 0l0 14.34375q0 3.875 -0.796875 5.484375q-0.78125 1.625 -2.5 2.5625q-1.703125 0.9375 -4.203125 0.9375q-2.96875 0 -4.796875 -1.34375q-1.828125 -1.328125 -1.765625 -4.015625zm2.328125 -9.96875q0 3.265625 1.296875 4.765625q1.296875 1.5 3.25 1.5q1.9375 0 3.25 -1.484375q1.3125 -1.5 1.3125 -4.6875q0 -3.046875 -1.359375 -4.59375q-1.34375 -1.546875 -3.25 -1.546875q-1.875 0 -3.1875 1.53125q-1.3125 1.515625 -1.3125 4.515625z" fill-rule="nonzero"></path><path fill="#cfe2f3" d="m423.53018 270.29922l226.80313 0l0 179.40155l-226.80313 0z" fill-rule="nonzero"></path><path stroke="#000000" stroke-width="1.0" stroke-linejoin="round" stroke-linecap="butt" d="m423.53018 270.29922l226.80313 0l0 179.40155l-226.80313 0z" fill-rule="nonzero"></path><path fill="#f4cccc" d="m490.22308 337.85828l128.47247 0l0 76.566925l-128.47247 0z" fill-rule="nonzero"></path><path stroke="#000000" stroke-width="1.0" stroke-linejoin="round" stroke-linecap="butt" d="m490.22308 337.85828l128.47247 0l0 76.566925l-128.47247 0z" fill-rule="nonzero"></path><path fill="#000000" d="m501.75433 387.86172l0 -22.90625l16.5625 0l0 2.703125l-13.53125 0l0 7.015625l12.671875 0l0 2.6875l-12.671875 0l0 7.796875l14.0625 0l0 2.703125l-17.09375 0zm20.921875 0l0 -16.59375l2.515625 0l0 2.328125q0.78125 -1.21875 2.078125 -1.953125q1.296875 -0.75 2.953125 -0.75q1.84375 0 3.015625 0.765625q1.1875 0.765625 1.671875 2.140625q1.96875 -2.90625 5.125 -2.90625q2.46875 0 3.796875 1.375q1.328125 1.359375 1.328125 4.203125l0 11.390625l-2.796875 0l0 -10.453125q0 -1.6875 -0.28125 -2.421875q-0.265625 -0.75 -0.984375 -1.203125q-0.71875 -0.453125 -1.6875 -0.453125q-1.75 0 -2.90625 1.171875q-1.15625 1.15625 -1.15625 3.71875l0 9.640625l-2.8125 0l0 -10.78125q0 -1.875 -0.6875 -2.8125q-0.6875 -0.9375 -2.25 -0.9375q-1.1875 0 -2.203125 0.625q-1.0 0.625 -1.453125 1.828125q-0.453125 1.203125 -0.453125 3.46875l0 8.609375l-2.8125 0zm37.484375 -2.046875q-1.5625 1.328125 -3.015625 1.875q-1.4375 0.546875 -3.09375 0.546875q-2.734375 0 -4.203125 -1.328125q-1.46875 -1.34375 -1.46875 -3.421875q0 -1.21875 0.546875 -2.21875q0.5625 -1.015625 1.453125 -1.625q0.90625 -0.609375 2.03125 -0.921875q0.828125 -0.21875 2.5 -0.421875q3.40625 -0.40625 5.015625 -0.96875q0.015625 -0.578125 0.015625 -0.734375q0 -1.71875 -0.796875 -2.421875q-1.078125 -0.953125 -3.203125 -0.953125q-1.984375 0 -2.9375 0.703125q-0.9375 0.6875 -1.390625 2.453125l-2.75 -0.375q0.375 -1.765625 1.234375 -2.84375q0.859375 -1.09375 2.484375 -1.671875q1.625 -0.59375 3.765625 -0.59375q2.125 0 3.453125 0.5q1.328125 0.5 1.953125 1.265625q0.625 0.75 0.875 1.90625q0.140625 0.71875 0.140625 2.59375l0 3.75q0 3.921875 0.171875 4.96875q0.1875 1.03125 0.71875 1.984375l-2.9375 0q-0.4375 -0.875 -0.5625 -2.046875zm-0.234375 -6.28125q-1.53125 0.625 -4.59375 1.0625q-1.734375 0.25 -2.453125 0.5625q-0.71875 0.3125 -1.109375 0.921875q-0.390625 0.59375 -0.390625 1.328125q0 1.125 0.84375 1.875q0.859375 0.75 2.5 0.75q1.625 0 2.890625 -0.703125q1.265625 -0.71875 1.859375 -1.953125q0.453125 -0.953125 0.453125 -2.8125l0 -1.03125zm7.21875 -11.34375l0 -3.234375l2.8125 0l0 3.234375l-2.8125 0zm0 19.671875l0 -16.59375l2.8125 0l0 16.59375l-2.8125 0zm7.03125 0l0 -22.90625l2.8125 0l0 22.90625l-2.8125 0z" fill-rule="nonzero"></path><path fill="#000000" fill-opacity="0.0" d="m340.16534 226.92651c107.14963 0 214.2992 55.46457 214.2992 110.92914" fill-rule="nonzero"></path><path stroke="#000000" stroke-width="1.0" stroke-linejoin="round" stroke-linecap="butt" d="m340.16534 226.92651c53.5748 0 107.14963 13.866135 147.33072 34.665344c20.090546 10.399597 36.832672 22.53247 48.552155 35.531982c5.859741 6.499756 10.463867 13.216187 13.602966 20.040924c1.5696411 3.412384 2.7729492 6.851837 3.5838623 10.30481c0.20275879 0.86325073 0.38098145 1.7273254 0.5342407 2.5920715c0.076660156 0.43237305 0.14703369 0.8648987 0.21118164 1.2975464l0.07196045 0.5106201" fill-rule="evenodd"></path><path fill="#000000" stroke="#000000" stroke-width="1.0" stroke-linecap="butt" d="m552.4046 331.98328l1.9595337 4.41391l1.3361206 -4.6408386z" fill-rule="evenodd"></path><path fill="#cfe2f3" d="m518.2703 61.417324l226.80316 0l0 179.40157l-226.80316 0z" fill-rule="nonzero"></path><path stroke="#000000" stroke-width="1.0" stroke-linejoin="round" stroke-linecap="butt" d="m518.2703 61.417324l226.80316 0l0 179.40157l-226.80316 0z" fill-rule="nonzero"></path><path fill="#f4cccc" d="m550.5512 128.97638l162.89758 0l0 76.566925l-162.89758 0z" fill-rule="nonzero"></path><path stroke="#000000" stroke-width="1.0" stroke-linejoin="round" stroke-linecap="butt" d="m550.5512 128.97638l162.89758 0l0 76.566925l-162.89758 0z" fill-rule="nonzero"></path><path fill="#000000" d="m560.76996 154.65672l2.40625 -0.21875q0.171875 1.453125 0.796875 2.390625q0.625 0.921875 1.9375 1.5q1.328125 0.5625 2.96875 0.5625q1.46875 0 2.578125 -0.421875q1.125 -0.4375 1.671875 -1.1875q0.5625 -0.765625 0.5625 -1.671875q0 -0.90625 -0.53125 -1.578125q-0.53125 -0.6875 -1.75 -1.140625q-0.765625 -0.3125 -3.4375 -0.953125q-2.65625 -0.640625 -3.734375 -1.203125q-1.375 -0.71875 -2.0625 -1.796875q-0.671875 -1.078125 -0.671875 -2.40625q0 -1.46875 0.828125 -2.734375q0.828125 -1.28125 2.421875 -1.9375q1.59375 -0.65625 3.546875 -0.65625q2.15625 0 3.796875 0.703125q1.640625 0.6875 2.515625 2.03125q0.890625 1.34375 0.953125 3.046875l-2.453125 0.171875q-0.1875 -1.828125 -1.328125 -2.765625q-1.140625 -0.9375 -3.375 -0.9375q-2.3125 0 -3.375 0.859375q-1.0625 0.84375 -1.0625 2.046875q0 1.046875 0.75 1.71875q0.734375 0.671875 3.84375 1.375q3.125 0.703125 4.28125 1.234375q1.6875 0.765625 2.484375 1.96875q0.8125 1.1875 0.8125 2.75q0 1.53125 -0.890625 2.90625q-0.875 1.359375 -2.53125 2.125q-1.65625 0.74998474 -3.71875 0.74998474q-2.625 0 -4.40625 -0.76560974q-1.765625 -0.765625 -2.78125 -2.296875q-1.0 -1.53125 -1.046875 -3.46875zm27.920105 1.6875l2.453125 0.3125q-0.578125 2.140625 -2.15625 3.328125q-1.5625 1.1874847 -4.0 1.1874847q-3.0625 0 -4.875 -1.8906097q-1.796875 -1.890625 -1.796875 -5.296875q0 -3.546875 1.8125 -5.484375q1.828125 -1.953125 4.734375 -1.953125q2.8125 0 4.578125 1.90625q1.78125 1.90625 1.78125 5.375q0 0.21875 -0.015625 0.640625l-10.4375 0q0.140625 2.296875 1.3125 3.53125q1.171875 1.21875 2.921875 1.21875q1.3125 0 2.234375 -0.671875q0.921875 -0.6875 1.453125 -2.203125zm-7.78125 -3.828125l7.8125 0q-0.15625 -1.765625 -0.890625 -2.65625q-1.140625 -1.359375 -2.953125 -1.359375q-1.625 0 -2.75 1.09375q-1.109375 1.09375 -1.21875 2.921875zm12.996826 8.34375l0 -14.0l2.140625 0l0 2.125q0.8125 -1.5 1.5 -1.96875q0.703125 -0.46875 1.53125 -0.46875q1.203125 0 2.4375 0.765625l-0.8125 2.203125q-0.875 -0.515625 -1.75 -0.515625q-0.765625 0 -1.390625 0.46875q-0.625 0.46875 -0.890625 1.296875q-0.390625 1.265625 -0.390625 2.765625l0 7.328125l-2.375 0zm12.798584 0l-5.328125 -14.0l2.5 0l3.015625 8.390625q0.484375 1.34375 0.890625 2.8125q0.3125 -1.109375 0.890625 -2.65625l3.109375 -8.546875l2.4375 0l-5.296875 14.0l-2.21875 0zm9.453125 -16.59375l0 -2.734375l2.375 0l0 2.734375l-2.375 0zm0 16.59375l0 -14.0l2.375 0l0 14.0l-2.375 0zm15.04718 -5.125l2.328125 0.296875q-0.375 2.421875 -1.953125 3.78125q-1.578125 1.3593597 -3.875 1.3593597q-2.875 0 -4.625 -1.8749847q-1.734375 -1.875 -1.734375 -5.390625q0 -2.265625 0.75 -3.953125q0.75 -1.703125 2.28125 -2.546875q1.53125 -0.859375 3.34375 -0.859375q2.28125 0 3.71875 1.15625q1.453125 1.140625 1.875 3.265625l-2.3125 0.359375q-0.328125 -1.40625 -1.171875 -2.109375q-0.828125 -0.71875 -2.015625 -0.71875q-1.796875 0 -2.921875 1.28125q-1.109375 1.28125 -1.109375 4.0625q0 2.828125 1.078125 4.109375q1.078125 1.265625 2.8125 1.265625q1.40625 0 2.34375 -0.84375q0.9375 -0.859375 1.1875 -2.640625zm13.765625 0.609375l2.453125 0.3125q-0.578125 2.140625 -2.15625 3.328125q-1.5625 1.1874847 -4.0 1.1874847q-3.0625 0 -4.875 -1.8906097q-1.796875 -1.890625 -1.796875 -5.296875q0 -3.546875 1.8125 -5.484375q1.828125 -1.953125 4.734375 -1.953125q2.8125 0 4.578125 1.90625q1.78125 1.90625 1.78125 5.375q0 0.21875 -0.015625 0.640625l-10.4375 0q0.140625 2.296875 1.3125 3.53125q1.171875 1.21875 2.921875 1.21875q1.3125 0 2.234375 -0.671875q0.921875 -0.6875 1.453125 -2.203125zm-7.78125 -3.828125l7.8125 0q-0.15625 -1.765625 -0.890625 -2.65625q-1.140625 -1.359375 -2.953125 -1.359375q-1.625 0 -2.75 1.09375q-1.109375 1.09375 -1.21875 2.921875z" fill-rule="nonzero"></path><path fill="#000000" d="m561.62933 192.85983l0 -19.328125l6.65625 0q2.265625 0 3.453125 0.28125q1.65625 0.375 2.828125 1.375q1.53125 1.296875 2.28125 3.3125q0.765625 2.0 0.765625 4.59375q0 2.203125 -0.515625 3.90625q-0.515625 1.6875 -1.328125 2.8125q-0.796875 1.109375 -1.75 1.75q-0.953125 0.640625 -2.3125 0.96875q-1.34375 0.328125 -3.09375 0.328125l-6.984375 0zm2.5625 -2.28125l4.125 0q1.90625 0 3.0 -0.359375q1.09375 -0.359375 1.734375 -1.0q0.90625 -0.90625 1.40625 -2.4375q0.515625 -1.546875 0.515625 -3.734375q0 -3.03125 -1.0 -4.65625q-0.984375 -1.625 -2.40625 -2.1875q-1.03125 -0.390625 -3.3125 -0.390625l-4.0625 0l0 14.765625zm16.406494 -14.3125l0 -2.734375l2.375 0l0 2.734375l-2.375 0zm0 16.59375l0 -14.0l2.375 0l0 14.0l-2.375 0zm4.95343 -4.171875l2.34375 -0.375q0.203125 1.40625 1.109375 2.15625q0.90625 0.75 2.515625 0.75q1.640625 0 2.421875 -0.65625q0.796875 -0.671875 0.796875 -1.5625q0 -0.8125 -0.6875 -1.265625q-0.5 -0.3125 -2.4375 -0.8125q-2.609375 -0.65625 -3.625 -1.125q-1.0 -0.484375 -1.53125 -1.328125q-0.515625 -0.859375 -0.515625 -1.890625q0 -0.9375 0.421875 -1.734375q0.4375 -0.796875 1.1875 -1.328125q0.546875 -0.40625 1.5 -0.6875q0.953125 -0.28125 2.046875 -0.28125q1.65625 0 2.890625 0.46875q1.25 0.46875 1.84375 1.28125q0.59375 0.8125 0.828125 2.171875l-2.328125 0.3125q-0.15625 -1.078125 -0.921875 -1.671875q-0.75 -0.609375 -2.140625 -0.609375q-1.625 0 -2.328125 0.546875q-0.703125 0.53125 -0.703125 1.25q0 0.46875 0.296875 0.828125q0.28125 0.390625 0.90625 0.640625q0.359375 0.125 2.09375 0.609375q2.515625 0.671875 3.515625 1.09375q1.0 0.421875 1.5625 1.25q0.5625 0.8125 0.5625 2.03125q0 1.1875 -0.6875 2.234375q-0.6875 1.046875 -2.0 1.625q-1.296875 0.5625 -2.953125 0.5625q-2.71875 0 -4.15625 -1.125q-1.4375 -1.140625 -1.828125 -3.359375zm23.421875 -0.953125l2.328125 0.296875q-0.375 2.421875 -1.953125 3.78125q-1.578125 1.359375 -3.875 1.359375q-2.875 0 -4.625 -1.875q-1.734375 -1.875 -1.734375 -5.390625q0 -2.265625 0.75 -3.953125q0.75 -1.703125 2.28125 -2.546875q1.53125 -0.859375 3.34375 -0.859375q2.28125 0 3.71875 1.15625q1.453125 1.140625 1.875 3.265625l-2.3125 0.359375q-0.328125 -1.40625 -1.171875 -2.109375q-0.828125 -0.71875 -2.015625 -0.71875q-1.796875 0 -2.921875 1.28125q-1.109375 1.28125 -1.109375 4.0625q0 2.828125 1.078125 4.109375q1.078125 1.265625 2.8125 1.265625q1.40625 0 2.34375 -0.84375q0.9375 -0.859375 1.1875 -2.640625zm3.296875 -1.875q0 -3.890625 2.171875 -5.765625q1.796875 -1.546875 4.40625 -1.546875q2.875 0 4.703125 1.890625q1.84375 1.890625 1.84375 5.21875q0 2.703125 -0.8125 4.265625q-0.8125 1.546875 -2.359375 2.40625q-1.546875 0.84375 -3.375 0.84375q-2.953125 0 -4.765625 -1.875q-1.8125 -1.890625 -1.8125 -5.4375zm2.4375 0q0 2.6875 1.171875 4.03125q1.1875 1.328125 2.96875 1.328125q1.765625 0 2.9375 -1.34375q1.171875 -1.34375 1.171875 -4.09375q0 -2.59375 -1.1875 -3.9375q-1.171875 -1.34375 -2.921875 -1.34375q-1.78125 0 -2.96875 1.34375q-1.171875 1.328125 -1.171875 4.015625zm17.168701 7.0l-5.328125 -14.0l2.5 0l3.015625 8.390625q0.484375 1.34375 0.890625 2.8125q0.3125 -1.109375 0.890625 -2.65625l3.109375 -8.546875l2.4375 0l-5.296875 14.0l-2.21875 0zm19.015625 -4.515625l2.453125 0.3125q-0.578125 2.140625 -2.15625 3.328125q-1.5625 1.1875 -4.0 1.1875q-3.0625 0 -4.875 -1.890625q-1.796875 -1.890625 -1.796875 -5.296875q0 -3.546875 1.8125 -5.484375q1.828125 -1.953125 4.734375 -1.953125q2.8125 0 4.578125 1.90625q1.78125 1.90625 1.78125 5.375q0 0.21875 -0.015625 0.640625l-10.4375 0q0.140625 2.296875 1.3125 3.53125q1.171875 1.21875 2.921875 1.21875q1.3125 0 2.234375 -0.671875q0.921875 -0.6875 1.453125 -2.203125zm-7.78125 -3.828125l7.8125 0q-0.15625 -1.765625 -0.890625 -2.65625q-1.140625 -1.359375 -2.953125 -1.359375q-1.625 0 -2.75 1.09375q-1.109375 1.09375 -1.21875 2.921875zm12.996826 8.34375l0 -14.0l2.140625 0l0 2.125q0.8125 -1.5 1.5 -1.96875q0.703125 -0.46875 1.53125 -0.46875q1.203125 0 2.4375 0.765625l-0.8125 2.203125q-0.875 -0.515625 -1.75 -0.515625q-0.765625 0 -1.390625 0.46875q-0.625 0.46875 -0.890625 1.296875q-0.390625 1.265625 -0.390625 2.765625l0 7.328125l-2.375 0zm8.798584 5.390625l-0.265625 -2.21875q0.78125 0.203125 1.359375 0.203125q0.796875 0 1.265625 -0.265625q0.484375 -0.265625 0.78125 -0.734375q0.21875 -0.359375 0.71875 -1.765625q0.078125 -0.203125 0.21875 -0.578125l-5.3125 -14.03125l2.5625 0l2.90625 8.109375q0.5625 1.546875 1.015625 3.234375q0.40625 -1.625 0.96875 -3.1875l3.0 -8.15625l2.375 0l-5.328125 14.234375q-0.859375 2.3125 -1.328125 3.1875q-0.640625 1.171875 -1.453125 1.71875q-0.8125 0.546875 -1.953125 0.546875q-0.6875 0 -1.53125 -0.296875z" fill-rule="nonzero"></path><path fill="#000000" fill-opacity="0.0" d="m275.92914 188.64305c0 -42.333435 89.01575 -77.21018 178.0315 -84.66688c89.01575 -7.4566956 178.0315 12.506668 178.0315 25.013329" fill-rule="nonzero"></path><path stroke="#000000" stroke-width="1.0" stroke-linejoin="round" stroke-linecap="butt" d="m275.92914 188.64305c0 -42.333435 89.01575 -77.21018 178.0315 -84.66688c44.507874 -3.7283478 89.01575 -0.6016846 122.39667 5.020401c16.69043 2.8110428 30.599121 6.245941 40.335266 9.75975c4.868042 1.7569046 8.692932 3.5335236 11.300781 5.2617645l0.32922363 0.2243576" fill-rule="evenodd"></path><path fill="#000000" stroke="#000000" stroke-width="1.0" stroke-linecap="butt" d="m627.0158 125.25262l4.0822144 2.5802612l-1.4686279 -4.6006165z" fill-rule="evenodd"></path><path fill="#000000" fill-opacity="0.0" d="m275.92914 188.64305c0 -10.692917 137.30707 -21.385834 274.6142 -21.385834" fill-rule="nonzero"></path><path stroke="#000000" stroke-width="1.0" stroke-linejoin="round" stroke-linecap="butt" d="m280.77975 185.11154l0.5852661 -0.21052551c0.23669434 -0.0823822 0.48077393 -0.16468811 0.73220825 -0.24693298c4.0226746 -1.3157196 9.922577 -2.6105652 17.43155 -3.8636475c15.017975 -2.5061493 36.4722 -4.84523 62.217285 -6.8501434c51.490143 -4.009842 120.14371 -6.683075 188.79727 -6.683075" fill-rule="evenodd"></path><path fill="#000000" stroke="#000000" stroke-width="1.0" stroke-linecap="butt" d="m279.8076 183.77623l-2.6965942 4.006363l4.64093 -1.3357239z" fill-rule="evenodd"></path><path fill="#cfe2f3" d="m159.4672 354.58267l226.80316 0l0 179.40158l-226.80316 0z" fill-rule="nonzero"></path><path stroke="#000000" stroke-width="1.0" stroke-linejoin="round" stroke-linecap="butt" d="m159.4672 354.58267l226.80316 0l0 179.40158l-226.80316 0z" fill-rule="nonzero"></path><path fill="#f4cccc" d="m191.74803 422.14172l162.89763 0l0 76.566925l-162.89763 0z" fill-rule="nonzero"></path><path stroke="#000000" stroke-width="1.0" stroke-linejoin="round" stroke-linecap="butt" d="m191.74803 422.14172l162.89763 0l0 76.566925l-162.89763 0z" fill-rule="nonzero"></path><path fill="#000000" d="m216.62303 447.24396l2.5625 0.65625q-0.8125 3.140625 -2.90625 4.796875q-2.078125 1.65625 -5.109375 1.65625q-3.125 0 -5.078125 -1.265625q-1.953125 -1.28125 -2.984375 -3.6875q-1.015625 -2.421875 -1.015625 -5.1875q0 -3.015625 1.15625 -5.265625q1.15625 -2.25 3.28125 -3.40625q2.125 -1.171875 4.6875 -1.171875q2.90625 0 4.875 1.484375q1.984375 1.46875 2.75 4.140625l-2.515625 0.59375q-0.671875 -2.109375 -1.953125 -3.0625q-1.265625 -0.96875 -3.203125 -0.96875q-2.234375 0 -3.734375 1.078125q-1.5 1.0625 -2.109375 2.859375q-0.59375 1.796875 -0.59375 3.703125q0 2.46875 0.71875 4.3125q0.71875 1.84375 2.234375 2.75q1.515625 0.90625 3.28125 0.90625q2.140625 0 3.625 -1.234375q1.5 -1.25 2.03125 -3.6875zm5.172165 -9.8125l0 -2.734375l2.375 0l0 2.734375l-2.375 0zm0 16.59375l0 -14.0l2.375 0l0 14.0l-2.375 0zm5.87529 0l0 -14.0l2.140625 0l0 2.125q0.8125 -1.5 1.5 -1.96875q0.703125 -0.46875 1.53125 -0.46875q1.203125 0 2.4375 0.765625l-0.8125 2.203125q-0.875 -0.515625 -1.75 -0.515625q-0.765625 0 -1.390625 0.46875q-0.625 0.46875 -0.890625 1.296875q-0.390625 1.265625 -0.390625 2.765625l0 7.328125l-2.375 0zm18.048615 -5.125l2.328125 0.296875q-0.375 2.421875 -1.953125 3.78125q-1.578125 1.359375 -3.875 1.359375q-2.875 0 -4.625 -1.875q-1.734375 -1.875 -1.734375 -5.390625q0 -2.265625 0.75 -3.953125q0.75 -1.703125 2.28125 -2.546875q1.53125 -0.859375 3.34375 -0.859375q2.28125 0 3.71875 1.15625q1.453125 1.140625 1.875 3.265625l-2.3125 0.359375q-0.328125 -1.40625 -1.171875 -2.109375q-0.828125 -0.71875 -2.015625 -0.71875q-1.796875 0 -2.921875 1.28125q-1.109375 1.28125 -1.109375 4.0625q0 2.828125 1.078125 4.109375q1.078125 1.265625 2.8125 1.265625q1.40625 0 2.34375 -0.84375q0.9375 -0.859375 1.1875 -2.640625zm13.35936 5.125l0 -2.0625q-1.625 2.375 -4.4374847 2.375q-1.234375 0 -2.3125 -0.46875q-1.078125 -0.484375 -1.609375 -1.1875q-0.515625 -0.71875 -0.71875 -1.765625q-0.140625 -0.703125 -0.140625 -2.21875l0 -8.671875l2.359375 0l0 7.765625q0 1.859375 0.15625 2.5q0.21875 0.9375 0.9375 1.46875q0.734375 0.53125 1.796875 0.53125q1.0781097 0 1.9999847 -0.546875q0.9375 -0.546875 1.328125 -1.484375q0.390625 -0.9375 0.390625 -2.734375l0 -7.5l2.375 0l0 14.0l-2.125 0zm5.668701 -16.59375l0 -2.734375l2.375 0l0 2.734375l-2.375 0zm0 16.59375l0 -14.0l2.375 0l0 14.0l-2.375 0zm11.094025 -2.125l0.328125 2.09375q-1.0 0.21875 -1.78125 0.21875q-1.296875 0 -2.015625 -0.40625q-0.703125 -0.421875 -1.0 -1.078125q-0.28125 -0.671875 -0.28125 -2.796875l0 -8.0625l-1.75 0l0 -1.84375l1.75 0l0 -3.46875l2.359375 -1.421875l0 4.890625l2.390625 0l0 1.84375l-2.390625 0l0 8.1875q0 1.015625 0.125 1.3125q0.125 0.28125 0.40625 0.453125q0.28125 0.171875 0.8125 0.171875q0.390625 0 1.046875 -0.09375z" fill-rule="nonzero"></path><path fill="#000000" d="m202.7324 486.0252l0 -19.328125l7.25 0q2.203125 0 3.546875 0.59375q1.34375 0.578125 2.09375 1.796875q0.765625 1.21875 0.765625 2.546875q0 1.25 -0.671875 2.34375q-0.671875 1.09375 -2.03125 1.765625q1.75 0.515625 2.6875 1.75q0.953125 1.234375 0.953125 2.921875q0 1.359375 -0.578125 2.53125q-0.578125 1.171875 -1.421875 1.8125q-0.84375 0.625 -2.125 0.953125q-1.265625 0.3125 -3.109375 0.3125l-7.359375 0zm2.546875 -11.203125l4.1875 0q1.703125 0 2.4375 -0.234375q0.96875 -0.28125 1.46875 -0.953125q0.5 -0.671875 0.5 -1.6875q0 -0.96875 -0.46875 -1.6875q-0.46875 -0.734375 -1.328125 -1.0q-0.84375 -0.28125 -2.9375 -0.28125l-3.859375 0l0 5.84375zm0 8.921875l4.8125 0q1.25 0 1.75 -0.09375q0.875 -0.15625 1.46875 -0.515625q0.59375 -0.375 0.96875 -1.078125q0.390625 -0.71875 0.390625 -1.640625q0 -1.078125 -0.5625 -1.875q-0.546875 -0.796875 -1.53125 -1.109375q-0.984375 -0.328125 -2.828125 -0.328125l-4.46875 0l0 6.640625zm14.9982605 2.28125l0 -14.0l2.140625 0l0 2.125q0.8125 -1.5 1.5 -1.96875q0.703125 -0.46875 1.53125 -0.46875q1.203125 0 2.4375 0.765625l-0.8125 2.203125q-0.875 -0.515625 -1.75 -0.515625q-0.765625 0 -1.390625 0.46875q-0.625 0.46875 -0.890625 1.296875q-0.390625 1.265625 -0.390625 2.765625l0 7.328125l-2.375 0zm18.486115 -4.515625l2.453125 0.3125q-0.578125 2.140625 -2.15625 3.328125q-1.5625 1.1875 -4.0 1.1875q-3.0625 0 -4.875 -1.890625q-1.796875 -1.890625 -1.796875 -5.296875q0 -3.546875 1.8125 -5.484375q1.828125 -1.953125 4.734375 -1.953125q2.8125 0 4.578125 1.90625q1.78125 1.90625 1.78125 5.375q0 0.21875 -0.015625 0.640625l-10.4375 0q0.140625 2.296875 1.3125 3.53125q1.171875 1.21875 2.921875 1.21875q1.3125 0 2.234375 -0.671875q0.921875 -0.6875 1.453125 -2.203125zm-7.78125 -3.828125l7.8125 0q-0.15625 -1.765625 -0.890625 -2.65625q-1.140625 -1.359375 -2.953125 -1.359375q-1.625 0 -2.75 1.09375q-1.109375 1.09375 -1.21875 2.921875zm22.168686 6.609375q-1.328125 1.125 -2.546875 1.59375q-1.21875 0.453125 -2.609375 0.453125q-2.3125 0 -3.5625 -1.125q-1.234375 -1.125 -1.234375 -2.875q0 -1.03125 0.46875 -1.875q0.46875 -0.859375 1.21875 -1.375q0.765625 -0.515625 1.71875 -0.78125q0.703125 -0.171875 2.109375 -0.34375q2.875 -0.34375 4.234375 -0.828125q0.015625 -0.484375 0.015625 -0.609375q0 -1.453125 -0.671875 -2.046875q-0.90625 -0.8125 -2.703125 -0.8125q-1.671875 0 -2.46875 0.59375q-0.796875 0.578125 -1.1875 2.078125l-2.3125 -0.3125q0.3125 -1.5 1.03125 -2.40625q0.734375 -0.921875 2.09375 -1.40625q1.375 -0.5 3.1875 -0.5q1.796875 0 2.90625 0.421875q1.125 0.421875 1.640625 1.0625q0.53125 0.640625 0.75 1.609375q0.125 0.609375 0.125 2.1875l0 3.171875q0 3.296875 0.140625 4.1875q0.15625 0.875 0.609375 1.671875l-2.484375 0q-0.375 -0.734375 -0.46875 -1.734375zm-0.203125 -5.296875q-1.296875 0.53125 -3.875 0.90625q-1.46875 0.203125 -2.078125 0.46875q-0.59375 0.265625 -0.9375 0.78125q-0.328125 0.5 -0.328125 1.125q0 0.9375 0.71875 1.578125q0.71875 0.625 2.109375 0.625q1.375 0 2.4375 -0.59375q1.0625 -0.609375 1.578125 -1.640625q0.375 -0.8125 0.375 -2.375l0 -0.875zm5.9030457 7.03125l0 -19.328125l2.375 0l0 11.015625l5.609375 -5.6875l3.078125 0l-5.359375 5.1875l5.890625 8.8125l-2.921875 0l-4.625 -7.15625l-1.671875 1.609375l0 5.546875l-2.375 0zm22.890625 -4.515625l2.453125 0.3125q-0.578125 2.140625 -2.15625 3.328125q-1.5625 1.1875 -4.0 1.1875q-3.0625 0 -4.875 -1.890625q-1.796875 -1.890625 -1.796875 -5.296875q0 -3.546875 1.8125 -5.484375q1.828125 -1.953125 4.734375 -1.953125q2.8125 0 4.578125 1.90625q1.78125 1.90625 1.78125 5.375q0 0.21875 -0.015625 0.640625l-10.4375 0q0.140625 2.296875 1.3125 3.53125q1.171875 1.21875 2.921875 1.21875q1.3125 0 2.234375 -0.671875q0.921875 -0.6875 1.453125 -2.203125zm-7.78125 -3.828125l7.8125 0q-0.15625 -1.765625 -0.890625 -2.65625q-1.140625 -1.359375 -2.953125 -1.359375q-1.625 0 -2.75 1.09375q-1.109375 1.09375 -1.21875 2.921875zm12.996826 8.34375l0 -14.0l2.140625 0l0 2.125q0.8125 -1.5 1.5 -1.96875q0.703125 -0.46875 1.53125 -0.46875q1.203125 0 2.4375 0.765625l-0.8125 2.203125q-0.875 -0.515625 -1.75 -0.515625q-0.765625 0 -1.390625 0.46875q-0.625 0.46875 -0.890625 1.296875q-0.390625 1.265625 -0.390625 2.765625l0 7.328125l-2.375 0z" fill-rule="nonzero"></path><path fill="#000000" fill-opacity="0.0" d="m275.92914 265.20996c0 39.363373 -0.6850586 59.10858 -1.3700867 78.726715c-0.6850281 19.618103 -1.3700867 39.10907 -1.3700867 78.21817" fill-rule="nonzero"></path><path stroke="#000000" stroke-width="1.0" stroke-linejoin="round" stroke-linecap="butt" d="m275.92914 265.20996c0 39.363373 -0.6850586 59.10858 -1.3700867 78.726685c-0.3425293 9.809082 -0.6850281 19.586365 -0.94192505 31.799988c-0.12844849 6.106842 -0.23547363 12.822754 -0.3103943 20.456268c-0.037475586 3.8167725 -0.06689453 7.8629456 -0.0869751 12.1770935c-0.010040283 2.157074 -0.017730713 4.3811035 -0.022918701 6.677002l-0.0018615723 1.1078491" fill-rule="evenodd"></path><path fill="#000000" stroke="#000000" stroke-width="1.0" stroke-linecap="butt" d="m271.54324 416.1532l1.6471863 4.5397644l1.6562805 -4.536438z" fill-rule="evenodd"></path><path fill="#000000" fill-opacity="0.0" d="m211.69292 226.92651c-22.472397 0 -42.452667 58.37796 -44.944794 116.75589c-2.4921265 58.37796 12.503891 116.75592 25.007782 116.75592" fill-rule="nonzero"></path><path stroke="#000000" stroke-width="1.0" stroke-linejoin="round" stroke-linecap="butt" d="m205.83826 228.23914l-0.13113403 0.05870056c-0.08557129 0.039123535 -0.17105103 0.079071045 -0.25650024 0.11984253c-0.683548 0.32600403 -1.3632965 0.70370483 -2.0387573 1.1312866c-2.7018738 1.7102814 -5.3355255 4.218704 -7.8716583 7.411255c-5.072281 6.385086 -9.754471 15.506638 -13.812286 26.4525c-8.115631 21.891754 -13.733734 51.08072 -14.979797 80.269684c-2.4921265 58.37796 12.503891 116.75592 25.007782 116.75592" fill-rule="evenodd"></path><path fill="#000000" stroke="#000000" stroke-width="1.0" stroke-linecap="butt" d="m206.19962 229.85086l4.066803 -2.6045227l-4.7895203 -0.61891174z" fill-rule="evenodd"></path></g></svg>

